<svg xmlns="http://www.w3.org/2000/svg" fill="#fff" viewBox="0 0 24 24"><path d="M.057 24l1.687-6.163a11.867 11.867 0 01-1.587-5.945C.16 5.3 5.3.16 12 .16s11.84 5.14 11.84 11.732S18.7 23.625 12 23.625c-1.99 0-3.95-.465-5.724-1.35L.057 24zm6.597-3.807c1.676.995 3.276 1.591 5.346 1.591 5.69 0 10.314-4.625 10.314-10.313C22.314 5.403 17.69.78 12 .78S1.686 5.403 1.686 11.093c0 1.957.51 3.573 1.54 5.15l-.99 3.624 3.518-.674z"/><path d="M17.472 14.382c-.297-.149-1.758-.867-2.03-.967-.273-.1-.472-.148-.67.15-.197.297-.767.966-.94 1.164-.173.199-.347.223-.644.075-.297-.15-1.255-.462-2.39-1.475-.883-.788-1.48-1.761-1.653-2.059-.173-.297-.018-.458.13-.606.134-.133.298-.347.446-.52.149-.174.198-.298.298-.497.099-.198.05-.373-.025-.522-.075-.149-.669-1.611-.916-2.206-.242-.579-.487-.501-.67-.51-.173-.007-.372-.009-.571-.009s-.52.074-.792.373c-.272.298-1.04 1.016-1.04 2.479s1.065 2.876 1.213 3.074c.149.198 2.095 3.2 5.077 4.487.709.306 1.263.489 1.694.626.712.227 1.36.195 1.872.118.571-.085 1.758-.719 2.006-1.413.248-.695.248-1.29.173-1.413-.074-.123-.272-.198-.57-.347z"/></svg>